<svg xmlns="http://www.w3.org/2000/svg" width="296" height="62" fill="none" xmlns:v="https://vecta.io/nano"><path fill="#202121" d="M.9.26h294.5v61.679H.9z"/><path d="M58.332 19.836l-6.95 21.686h-4.727l-3.753-14.04-3.753 14.11h-4.726l-6.95-21.686h5.421l3.892 14.874 3.684-14.874h4.935l3.684 14.874 3.892-14.874 5.352-.07zm3.441 14.735c2.085 0 3.614 1.529 3.614 3.614S63.858 41.8 61.773 41.8s-3.614-1.529-3.614-3.614 1.599-3.614 3.614-3.614zm40.283 7.028h-4.993l-1.296-3.786h-6.943l-1.295 3.786h-4.868l6.918-18.728h5.559l6.918 18.728zm-7.459-7.22l-2.302-6.716-2.302 6.716h4.603zm35.997-11.508l-5.043 18.728h-5.346l-3.358-12.2-3.27 12.2h-5.346l-5.043-18.728h5.043l2.881 12.892 3.446-12.892h4.817l3.283 12.892 3.018-12.892h4.918zm29.079 0l-5.043 18.728h-5.346l-3.358-12.2-3.27 12.2h-5.345l-5.044-18.728h5.044l2.88 12.892 3.446-12.892h4.817l3.283 12.892 3.019-12.892h4.917zm29.08 0l-5.044 18.728h-5.345l-3.359-12.2-3.27 12.2h-5.345l-5.044-18.728h5.044l2.88 12.892 3.446-12.892h4.818l3.282 12.892 3.019-12.892h4.918zm20.539 18.728h-4.994l-1.295-3.786h-6.943l-1.295 3.786h-4.868l6.918-18.728h5.559l6.918 18.728zm-7.459-7.22l-2.301-6.716-2.302 6.716h4.603zm20.653-5.773c0-.47-.097-.872-.29-1.207s-.524-.599-.993-.792a3.55 3.55 0 0 0-1.145-.239l-1.522-.05h-1.748v5.044h1.484c.772 0 1.417-.038 1.937-.113s.956-.247 1.308-.516c.335-.26.579-.545.73-.855.159-.319.239-.742.239-1.27zm7.533 12.993h-5.898l-5.107-6.867h-2.226v6.867h-4.805V22.871h8.1c1.107 0 2.059.063 2.855.189a6.16 6.16 0 0 1 2.239.818 4.81 4.81 0 0 1 1.673 1.635c.419.662.629 1.497.629 2.503 0 1.384-.323 2.511-.969 3.383-.637.872-1.551 1.597-2.742 2.176l6.251 8.025zm19.81-9.345c0 1.744-.398 3.308-1.195 4.691-.796 1.375-1.803 2.432-3.018 3.169a9.26 9.26 0 0 1-3.006 1.157c-1.09.218-2.382.327-3.874.327h-6.603V22.871h6.791c1.526 0 2.843.13 3.95.39 1.107.252 2.037.612 2.792 1.082a8.44 8.44 0 0 1 3.044 3.195c.746 1.333 1.119 2.905 1.119 4.717zm-4.993-.038c0-1.233-.227-2.285-.679-3.157-.445-.88-1.153-1.568-2.126-2.063a5.38 5.38 0 0 0-1.522-.491c-.511-.092-1.287-.138-2.327-.138h-1.22V38.09h1.22c1.149 0 1.992-.05 2.528-.151a5.67 5.67 0 0 0 1.573-.579c.88-.503 1.526-1.174 1.937-2.012.41-.847.616-1.891.616-3.132zm23.671 3.497c0 1.845-.784 3.346-2.352 4.503-1.56 1.149-3.681 1.723-6.365 1.723-1.551 0-2.905-.134-4.062-.403a21.43 21.43 0 0 1-3.232-1.044v-4.49h.528a11.19 11.19 0 0 0 3.345 1.836c1.241.428 2.432.641 3.572.641.294 0 .68-.025 1.158-.075s.867-.134 1.169-.252c.369-.151.671-.34.906-.566.243-.226.365-.562.365-1.006 0-.411-.177-.763-.529-1.056-.343-.302-.851-.532-1.522-.692l-2.238-.465a17.89 17.89 0 0 1-2.201-.566c-1.577-.511-2.713-1.203-3.409-2.075-.688-.88-1.031-1.97-1.031-3.27 0-1.744.78-3.165 2.339-4.264 1.568-1.107 3.581-1.66 6.037-1.66a18.32 18.32 0 0 1 3.648.365c1.207.235 2.251.532 3.132.893v4.314h-.516c-.755-.604-1.681-1.107-2.78-1.509a9.41 9.41 0 0 0-3.345-.616 8.32 8.32 0 0 0-1.208.088 4.52 4.52 0 0 0-1.144.302 2.17 2.17 0 0 0-.843.579c-.235.252-.352.541-.352.868 0 .495.188.876.566 1.145.377.26 1.09.499 2.138.717l1.975.415c.637.134 1.32.319 2.05.553 1.434.47 2.49 1.111 3.169 1.924.688.805 1.032 1.853 1.032 3.144z" fill="#fff"/></svg>