<svg xmlns="http://www.w3.org/2000/svg" width="1142" height="240" fill="none" xmlns:v="https://vecta.io/nano"><path fill="#202121" d="M.9.26h1140.45v239.45H.9z"/><path d="M223.861 76.259l-26.983 84.188h-18.349l-14.57-54.506-14.571 54.776h-18.349l-26.983-84.188h21.047l15.11 57.744 14.301-57.744h19.158l14.302 57.744 15.11-57.744 20.777-.27zm13.358 57.205c8.095 0 14.031 5.937 14.031 14.032s-5.936 14.031-14.031 14.031-14.031-5.937-14.031-14.031 6.206-14.032 14.031-14.032zm154.962 26.521h-19.385l-5.029-14.698h-26.954l-5.029 14.698h-18.896l26.855-72.705h21.582l26.856 72.705zm-28.955-28.028l-8.936-26.074-8.936 26.074h17.872zM502.972 87.28l-19.58 72.705H462.64l-13.037-47.364-12.696 47.364h-20.752l-19.58-72.705h19.58l11.182 50.048 13.379-50.048h18.701l12.744 50.048L483.88 87.28h19.092zm112.89 0l-19.58 72.705H575.53l-13.037-47.364-12.695 47.364h-20.752l-19.58-72.705h19.58l11.182 50.048 13.378-50.048h18.702l12.744 50.048 11.719-50.048h19.091zm112.891 0l-19.58 72.705h-20.752l-13.037-47.364-12.696 47.364h-20.751L622.356 87.28h19.581l11.181 50.048 13.379-50.048h18.701l12.744 50.048 11.719-50.048h19.092zm79.736 72.705h-19.385l-5.029-14.698h-26.953l-5.029 14.698h-18.897l26.856-72.705h21.582l26.855 72.705zm-28.955-28.028l-8.935-26.074-8.936 26.074h17.871zm80.176-22.412c0-1.823-.374-3.385-1.123-4.687s-2.035-2.328-3.858-3.076c-1.269-.521-2.75-.83-4.443-.928l-5.908-.195h-6.787v19.58h5.762c2.994 0 5.501-.147 7.519-.44s3.711-.96 5.078-2.002c1.302-1.009 2.246-2.116 2.832-3.32.619-1.237.928-2.881.928-4.932zm29.248 50.44h-22.9l-19.825-26.66h-8.642v26.66h-18.653V87.28h31.446c4.297 0 7.991.244 11.084.732s5.989 1.546 8.691 3.174c2.735 1.628 4.899 3.743 6.494 6.348 1.628 2.571 2.442 5.81 2.442 9.716 0 5.371-1.254 9.75-3.76 13.135-2.474 3.386-6.022 6.201-10.645 8.447l24.268 31.153zm76.904-36.28c0 6.771-1.546 12.842-4.638 18.213-3.093 5.339-6.999 9.44-11.719 12.305-3.548 2.148-7.438 3.646-11.67 4.492s-9.245 1.27-15.039 1.27h-25.635V87.28h26.367c5.925 0 11.035.504 15.332 1.514 4.297.977 7.911 2.376 10.84 4.199 5.013 3.06 8.952 7.194 11.817 12.402 2.897 5.176 4.345 11.279 4.345 18.31zm-19.384-.146c0-4.785-.879-8.87-2.637-12.256-1.725-3.418-4.476-6.087-8.252-8.008-1.921-.944-3.89-1.578-5.908-1.904-1.986-.358-4.997-.537-9.034-.537h-4.736v45.508h4.736c4.46 0 7.732-.196 9.815-.586 2.083-.423 4.118-1.172 6.103-2.246 3.418-1.953 5.925-4.558 7.52-7.813 1.595-3.288 2.393-7.34 2.393-12.158zm91.892 13.574c0 7.162-3.04 12.988-9.13 17.481-6.05 4.459-14.29 6.689-24.71 6.689-6.018 0-11.275-.521-15.767-1.562-4.46-1.075-8.643-2.426-12.549-4.053v-17.432h2.051c3.873 3.093 8.203 5.469 12.988 7.129 4.818 1.66 9.437 2.49 13.867 2.49 1.14 0 2.64-.097 4.49-.293 1.86-.195 3.37-.52 4.54-.976 1.44-.586 2.61-1.319 3.52-2.197.94-.879 1.41-2.181 1.41-3.907 0-1.595-.68-2.962-2.05-4.101-1.33-1.172-3.3-2.067-5.9-2.686-2.74-.651-5.64-1.253-8.7-1.806-3.023-.586-5.871-1.319-8.54-2.198-6.12-1.985-10.531-4.671-13.233-8.056-2.669-3.418-4.004-7.65-4.004-12.696 0-6.77 3.028-12.288 9.082-16.552 6.088-4.297 13.9-6.445 23.435-6.445 4.79 0 9.51.472 14.16 1.416 4.69.911 8.74 2.067 12.16 3.467v16.748h-2c-2.93-2.344-6.53-4.297-10.79-5.859-4.23-1.595-8.56-2.393-12.99-2.393a32.47 32.47 0 0 0-4.69.342c-1.53.195-3.01.586-4.44 1.172-1.27.488-2.361 1.237-3.272 2.246-.912.977-1.368 2.1-1.368 3.369 0 1.921.733 3.402 2.198 4.443 1.465 1.01 4.232 1.937 8.302 2.784l7.66 1.611c2.48.521 5.13 1.237 7.96 2.148 5.57 1.823 9.67 4.314 12.31 7.471 2.67 3.125 4 7.194 4 12.207z" fill="#fff"/></svg>