<svg xmlns="http://www.w3.org/2000/svg" width="134" height="28" fill="none" xmlns:v="https://vecta.io/nano"><g clip-path="url(#A)"><path d="M.16 0h133.68v28H.16V0z" fill="#202121"/><path d="M26.505 8.958l-3.139 9.794h-2.135l-1.695-6.341-1.695 6.372h-2.134L12.568 8.99h2.448l1.758 6.717 1.664-6.717h2.229l1.664 6.717 1.758-6.717 2.417-.032h0zm1.554 6.655a1.58 1.58 0 0 1 1.632 1.632 1.58 1.58 0 0 1-1.632 1.633 1.58 1.58 0 0 1-1.632-1.632 1.6 1.6 0 0 1 1.632-1.632h0zm18.192 3.174h-2.255l-.585-1.71h-3.136l-.585 1.71h-2.198l3.124-8.458h2.511l3.124 8.458h0zm-3.369-3.261l-1.04-3.033-1.04 3.033h2.079 0zm16.257-5.197l-2.277 8.458h-2.414l-1.517-5.51-1.477 5.51H49.04l-2.278-8.458h2.278l1.301 5.822 1.556-5.822h2.175l1.483 5.822 1.363-5.822h2.221 0zm13.133 0l-2.278 8.458H67.58l-1.517-5.51-1.477 5.51h-2.414l-2.278-8.458h2.278l1.301 5.822 1.556-5.822h2.175l1.483 5.822 1.363-5.822h2.221 0zm13.133 0l-2.278 8.458h-2.414l-1.517-5.51-1.477 5.51h-2.414l-2.278-8.458h2.278l1.301 5.822 1.556-5.822h2.176l1.482 5.822 1.364-5.822h2.221 0zm9.276 8.458h-2.255l-.585-1.71h-3.136l-.585 1.71h-2.199l3.124-8.458h2.51l3.124 8.458h0zm-3.369-3.261l-1.039-3.033-1.04 3.033h2.079 0zm9.327-2.607c0-.212-.044-.394-.131-.545s-.237-.27-.449-.358a1.6 1.6 0 0 0-.517-.108l-.687-.023h-.789v2.278h.67c.349 0 .64-.017.875-.051s.432-.112.591-.233c.151-.117.262-.246.33-.386s.108-.335.108-.573v-.001zm3.402 5.868h-2.664l-2.306-3.101h-1.005v3.101h-2.17v-8.458h3.658c.499 0 .93.028 1.29.085a2.78 2.78 0 0 1 1.011.369 2.18 2.18 0 0 1 .756.738c.189.299.284.676.284 1.13 0 .625-.146 1.134-.438 1.528s-.7.721-1.238.983l2.823 3.624h0zm8.946-4.22c0 .788-.18 1.494-.539 2.118s-.815 1.098-1.363 1.431c-.419.252-.878.429-1.358.523-.492.098-1.076.148-1.75.148h-2.982v-8.457h3.067c.69 0 1.284.059 1.784.176s.92.276 1.261.489a3.81 3.81 0 0 1 1.375 1.443c.337.602.505 1.312.505 2.13h0zm-2.255-.017c0-.557-.102-1.032-.306-1.426s-.521-.708-.96-.932c-.217-.108-.449-.183-.688-.222-.231-.042-.581-.062-1.051-.062h-.551v5.294h.551c.519 0 .9-.023 1.142-.068.248-.052.488-.14.71-.262.398-.227.689-.53.875-.909s.278-.854.278-1.414h0zm10.69 1.579c0 .833-.354 1.511-1.062 2.034s-1.662.778-2.874.778c-.701 0-1.312-.061-1.835-.182-.498-.118-.986-.276-1.459-.471v-2.028h.238a5.04 5.04 0 0 0 1.511.829c.56.193 1.098.29 1.613.29.133 0 .307-.011.523-.034s.391-.061.528-.114a1.29 1.29 0 0 0 .409-.256c.11-.102.165-.254.165-.454 0-.186-.08-.345-.239-.477s-.384-.24-.687-.313l-1.011-.21c-.337-.064-.669-.149-.994-.256-.712-.231-1.225-.543-1.54-.937s-.465-.89-.465-1.477c0-.788.352-1.429 1.056-1.926s1.617-.75 2.726-.75a8.27 8.27 0 0 1 1.648.165c.545.106 1.016.24 1.414.403v1.948h-.233a4.43 4.43 0 0 0-1.255-.681c-.483-.184-.995-.278-1.511-.278a3.75 3.75 0 0 0-.545.04 2.03 2.03 0 0 0-.517.136c-.146.056-.276.145-.381.261s-.159.244-.159.392c0 .224.085.396.256.517s.492.225.965.324l.892.187a9.32 9.32 0 0 1 .926.25c.648.212 1.125.502 1.431.869s.466.837.466 1.42v-.001z" fill="#fff"/></g><defs><clipPath id="A"><path fill="#fff" transform="translate(.161)" d="M0 0h133.677v28H0z"/></clipPath></defs></svg>