<svg xmlns="http://www.w3.org/2000/svg" width="946" height="240" fill="none" xmlns:v="https://vecta.io/nano"><path fill="#0057ff" d="M.45.173H945.9v239.45H.45z"/><g clip-path="url(#A)"><path d="M241.945 87.513h-45.339V74.559h45.339v12.954zm11.18 64.771c-2.863 8.4-13.142 19.431-33.04 19.431-19.911 0-36.038-11.199-36.038-36.758 0-25.325 15.059-38.344 35.403-38.344 19.963 0 32.153 11.542 34.815 28.668.505 3.277.706 7.694.615 13.861h-51.992c.842 20.798 22.56 21.452 29.717 13.142h20.52zm-49.783-25.909h32.159c-.681-10.02-7.358-14.372-16.044-14.372-9.496 0-14.749 4.974-16.115 14.372zm-62.012 45.262H99.449V74.695h45.035c35.469.525 36.143 35.261 17.618 44.73 22.417 8.162 23.169 52.212-20.772 52.212h0zm-22.45-58.216h23.214c16.245 0 18.823-19.431-2.02-19.431H118.88v19.431zm21.964 19.431H118.88v19.535h21.64c19.788 0 18.577-19.535.324-19.535h0z" fill="#fff"/></g><path d="M386.711 137.633c0 3.515-.716 6.656-2.149 9.423a19.18 19.18 0 0 1-5.81 6.885c-2.865 2.149-6.022 3.679-9.473 4.59-3.418.911-7.763 1.367-13.037 1.367h-31.738V87.193h28.223c5.859 0 10.14.195 12.841.586 2.735.391 5.437 1.253 8.106 2.588 2.767 1.4 4.818 3.288 6.152 5.664 1.367 2.344 2.051 5.029 2.051 8.057 0 3.515-.928 6.624-2.783 9.326-1.856 2.669-4.476 4.752-7.862 6.25v.39c4.753.944 8.513 2.898 11.28 5.86 2.799 2.962 4.199 6.868 4.199 11.719zm-24.023-29.883c0-1.205-.31-2.409-.928-3.614-.586-1.204-1.644-2.099-3.174-2.685-1.367-.521-3.076-.798-5.127-.83-2.018-.065-4.867-.098-8.545-.098h-1.758v15.381h2.93c2.962 0 5.485-.049 7.568-.146s3.728-.424 4.932-.977c1.693-.749 2.799-1.709 3.32-2.881.521-1.204.782-2.588.782-4.15zm4.589 29.59c0-2.312-.455-4.086-1.367-5.323-.879-1.269-2.392-2.213-4.541-2.832-1.465-.423-3.483-.651-6.055-.683l-8.056-.049h-4.102v18.115h1.367l11.329-.049c2.278-.032 4.378-.455 6.298-1.269 1.954-.814 3.288-1.888 4.004-3.223.749-1.367 1.123-2.93 1.123-4.687zm85.987 22.558h-52.588V87.193h52.588v14.063h-33.936v12.548h31.494v14.063h-31.494v17.969h33.936v14.062zm80.957 0h-18.75v-32.031h-27.686v32.031h-18.75V87.193h18.75v26.611h27.686V87.193h18.75v72.705zm85.791 0h-19.385l-5.029-14.697h-26.953l-5.03 14.697h-18.896l26.855-72.705h21.582l26.856 72.705zm-28.955-28.027l-8.936-26.074-8.935 26.074h17.871zm105.517 28.027h-18.066l-30.86-49.902v49.902h-17.187V87.193h22.412l26.514 41.651V87.193h17.187v72.705zm51.416 1.416c-5.403 0-10.4-.797-14.99-2.392-4.557-1.595-8.48-3.972-11.768-7.129s-5.843-7.097-7.666-11.817c-1.79-4.72-2.685-10.172-2.685-16.357 0-5.762.862-10.986 2.588-15.674s4.232-8.708 7.519-12.06c3.158-3.223 7.064-5.713 11.719-7.471 4.688-1.758 9.798-2.637 15.332-2.637 3.06 0 5.811.179 8.252.537 2.474.326 4.753.765 6.836 1.318 2.181.618 4.15 1.318 5.908 2.1 1.791.749 3.353 1.448 4.688 2.1v17.627h-2.149c-.911-.782-2.067-1.709-3.467-2.783-1.367-1.075-2.929-2.133-4.687-3.174-1.79-1.042-3.727-1.921-5.811-2.637s-4.313-1.074-6.689-1.074c-2.637 0-5.143.423-7.52 1.269-2.376.814-4.573 2.181-6.591 4.102-1.921 1.855-3.483 4.313-4.688 7.373-1.172 3.06-1.758 6.771-1.758 11.133 0 4.557.635 8.366 1.905 11.426 1.302 3.059 2.929 5.468 4.882 7.226 1.986 1.79 4.2 3.076 6.641 3.857 2.441.749 4.85 1.124 7.227 1.124 2.278 0 4.524-.342 6.738-1.026 2.246-.683 4.313-1.611 6.201-2.783a40.89 40.89 0 0 0 4.443-3.027c1.368-1.075 2.491-2.002 3.37-2.784h1.953v17.383l-5.225 2.295c-1.66.716-3.402 1.335-5.225 1.856-2.376.683-4.606 1.204-6.689 1.562s-4.948.537-8.594.537zm92.09-1.416h-52.588V87.193h52.588v14.063h-33.935v12.548h31.494v14.063h-31.494v17.969h33.935v14.062z" fill="#fff"/><defs><clipPath id="A"><path fill="#fff" transform="translate(99.45 42.173)" d="M0 0h155.45v155.45H0z"/></clipPath></defs></svg>