<svg xmlns="http://www.w3.org/2000/svg" width="991" height="240" fill="none" xmlns:v="https://vecta.io/nano"><path fill="#ea4c89" d="M0 .087h990.45v239.45H0z"/><g clip-path="url(#A)" fill="#fff"><path d="M176.725 195.108c41.585 0 75.296-33.711 75.296-75.296s-33.711-75.296-75.296-75.296-75.296 33.711-75.296 75.297 33.711 75.296 75.296 75.296z" fill-opacity=".15"/><path fill-rule="evenodd" d="M176.725 42.087C133.816 42.087 99 76.903 99 119.812s34.816 77.725 77.725 77.725c42.825 0 77.725-34.816 77.725-77.725s-34.9-77.725-77.725-77.725zm51.339 35.828c9.273 11.296 14.837 25.712 15.006 41.307-2.192-.421-24.111-4.889-46.197-2.107-.506-1.096-.927-2.276-1.433-3.456-1.349-3.203-2.866-6.491-4.384-9.61 24.447-9.948 35.575-24.279 37.008-26.134zm-51.339-24.363c16.86 0 32.287 6.323 44.005 16.692-1.18 1.686-11.212 15.09-34.816 23.941-10.875-19.979-22.93-36.333-24.784-38.863 4.973-1.18 10.2-1.77 15.595-1.77zm-28.24 6.238c1.77 2.36 13.572 18.799 24.615 38.357-31.022 8.262-58.42 8.093-61.371 8.093 4.3-20.569 18.209-37.682 36.756-46.449zm-38.189 60.106v-2.023c2.866.084 35.069.506 68.199-9.442 1.94 3.709 3.71 7.503 5.396 11.296l-2.614.759c-34.226 11.043-52.435 41.223-53.952 43.752-10.538-11.718-17.029-27.313-17.029-44.342zm66.429 66.344c-15.343 0-29.505-5.226-40.717-13.994 1.18-2.444 14.668-28.409 52.097-41.475.169-.085.254-.085.422-.169 9.357 24.194 13.151 44.511 14.163 50.327-8.009 3.457-16.776 5.311-25.965 5.311zm37.008-11.38c-.674-4.047-4.215-23.436-12.898-47.293 20.822-3.288 39.031 2.108 41.307 2.867-2.866 18.461-13.488 34.394-28.409 44.426z"/></g><path d="M392.696 123.532c0 6.771-1.546 12.842-4.638 18.213-3.093 5.339-6.999 9.44-11.719 12.305-3.548 2.148-7.438 3.646-11.67 4.492s-9.245 1.27-15.039 1.27h-25.635V87.107h26.367c5.925 0 11.035.504 15.332 1.514 4.297.977 7.91 2.376 10.84 4.199 5.013 3.06 8.952 7.194 11.817 12.402 2.897 5.176 4.345 11.279 4.345 18.31zm-19.384-.146c0-4.785-.879-8.871-2.637-12.256-1.725-3.418-4.476-6.087-8.252-8.008-1.921-.944-3.89-1.579-5.908-1.904-1.986-.358-4.997-.537-9.034-.537h-4.736v45.508h4.736c4.46 0 7.732-.196 9.815-.586 2.083-.424 4.118-1.172 6.103-2.246 3.418-1.954 5.925-4.558 7.52-7.813 1.595-3.288 2.393-7.34 2.393-12.158zm74.462-14.014c0-1.823-.374-3.385-1.123-4.687s-2.034-2.328-3.857-3.076c-1.27-.521-2.751-.831-4.443-.928-1.693-.13-3.663-.196-5.909-.196h-6.787v19.581h5.762c2.995 0 5.501-.147 7.52-.44s3.71-.96 5.078-2.002c1.302-1.009 2.246-2.116 2.832-3.32.618-1.237.927-2.881.927-4.932zm29.248 50.44h-22.9l-19.824-26.661h-8.643v26.661h-18.652V87.107h31.445c4.297 0 7.992.244 11.084.732s5.99 1.546 8.692 3.174c2.734 1.628 4.899 3.743 6.494 6.348 1.627 2.572 2.441 5.811 2.441 9.716 0 5.371-1.253 9.75-3.76 13.135-2.474 3.385-6.022 6.201-10.644 8.447l24.267 31.153zm47.51 0h-42.578v-12.891h11.914V99.997h-11.914V87.107h42.578v12.891h-11.914v46.924h11.914v12.891zm77.49-22.266c0 3.516-.716 6.657-2.148 9.424-1.4 2.767-3.337 5.062-5.811 6.885-2.864 2.148-6.022 3.678-9.472 4.589-3.418.912-7.764 1.368-13.037 1.368h-31.739V87.107h28.223c5.859 0 10.14.195 12.842.586 2.734.391 5.436 1.253 8.105 2.588 2.767 1.4 4.818 3.288 6.153 5.664 1.367 2.344 2.05 5.029 2.05 8.057 0 3.516-.927 6.624-2.783 9.326-1.855 2.67-4.476 4.753-7.861 6.25v.391c4.753.944 8.512 2.897 11.279 5.859 2.8 2.963 4.199 6.869 4.199 11.719zm-24.023-29.883c0-1.204-.309-2.409-.928-3.613-.586-1.205-1.644-2.1-3.174-2.686-1.367-.52-3.076-.797-5.126-.83-2.019-.065-4.867-.097-8.545-.097h-1.758v15.381h2.929c2.963 0 5.485-.049 7.569-.147s3.727-.423 4.931-.977c1.693-.748 2.8-1.709 3.321-2.88.521-1.205.781-2.588.781-4.151zm4.59 29.59c0-2.311-.456-4.085-1.367-5.322-.879-1.27-2.393-2.214-4.541-2.832-1.465-.423-3.483-.651-6.055-.684l-8.057-.049h-4.101v18.116h1.367l11.328-.049c2.279-.033 4.378-.456 6.299-1.27 1.953-.814 3.288-1.888 4.004-3.222.749-1.368 1.123-2.93 1.123-4.688zm95.605.293c0 3.516-.716 6.657-2.148 9.424-1.4 2.767-3.337 5.062-5.811 6.885-2.864 2.148-6.022 3.678-9.472 4.589-3.418.912-7.764 1.368-13.037 1.368h-31.739V87.107h28.223c5.859 0 10.14.195 12.842.586 2.734.391 5.436 1.253 8.105 2.588 2.767 1.4 4.818 3.288 6.153 5.664 1.367 2.344 2.05 5.029 2.05 8.057 0 3.516-.927 6.624-2.783 9.326-1.855 2.67-4.476 4.753-7.861 6.25v.391c4.752.944 8.512 2.897 11.279 5.859 2.8 2.963 4.199 6.869 4.199 11.719zm-24.023-29.883c0-1.204-.309-2.409-.928-3.613-.586-1.205-1.644-2.1-3.174-2.686-1.367-.52-3.076-.797-5.127-.83-2.018-.065-4.866-.097-8.545-.097h-1.757v15.381h2.929c2.963 0 5.485-.049 7.569-.147s3.727-.423 4.931-.977c1.693-.748 2.8-1.709 3.321-2.88.52-1.205.781-2.588.781-4.151zm4.59 29.59c0-2.311-.456-4.085-1.367-5.322-.879-1.27-2.393-2.214-4.541-2.832-1.465-.423-3.484-.651-6.055-.684l-8.057-.049h-4.101v18.116h1.367l11.328-.049c2.279-.033 4.378-.456 6.299-1.27 1.953-.814 3.288-1.888 4.004-3.222.748-1.368 1.123-2.93 1.123-4.688zm95.605.293c0 3.516-.716 6.657-2.148 9.424-1.4 2.767-3.337 5.062-5.811 6.885-2.864 2.148-6.022 3.678-9.472 4.589-3.418.912-7.764 1.368-13.038 1.368h-31.738V87.107h28.223c5.859 0 10.14.195 12.842.586 2.734.391 5.436 1.253 8.105 2.588 2.767 1.4 4.818 3.288 6.152 5.664 1.368 2.344 2.051 5.029 2.051 8.057 0 3.516-.928 6.624-2.783 9.326-1.855 2.67-4.476 4.753-7.861 6.25v.391c4.752.944 8.512 2.897 11.279 5.859 2.799 2.963 4.199 6.869 4.199 11.719zm-24.023-29.883c0-1.204-.309-2.409-.928-3.613-.586-1.205-1.644-2.1-3.174-2.686-1.367-.52-3.076-.797-5.127-.83-2.018-.065-4.866-.097-8.545-.097h-1.757v15.381h2.929c2.962 0 5.485-.049 7.569-.147s3.727-.423 4.931-.977c1.693-.748 2.8-1.709 3.321-2.88.52-1.205.781-2.588.781-4.151zm4.59 29.59c0-2.311-.456-4.085-1.368-5.322-.878-1.27-2.392-2.214-4.541-2.832-1.464-.423-3.483-.651-6.054-.684l-8.057-.049h-4.101v18.116h1.367l11.328-.049c2.278-.033 4.378-.456 6.299-1.27 1.953-.814 3.287-1.888 4.004-3.222.748-1.368 1.123-2.93 1.123-4.688zm85.839 22.559h-52.441V87.107h18.75v58.642h33.691v14.063zm63.916 0h-52.587V87.107h52.587v14.062h-33.935v12.549h31.494v14.062h-31.494v17.969h33.935v14.063z" fill="#fff"/><defs><clipPath id="A"><path fill="#fff" transform="translate(99 42.087)" d="M0 0h155.45v155.45H0z"/></clipPath></defs></svg>