<svg xmlns="http://www.w3.org/2000/svg" width="860" height="240" fill="none" xmlns:v="https://vecta.io/nano"><path fill="#12100e" d="M0 0h859.45v239.45H0z"/><g clip-path="url(#A)"><path fill-rule="evenodd" d="M176.725 42C133.782 42 99 76.782 99 119.725c0 34.393 22.249 63.443 53.145 73.742 3.886.68 5.343-1.652 5.343-3.692l-.097-14.476c-19.528 3.594-24.581-4.761-26.135-9.133-.874-2.235-4.664-9.133-7.967-10.979-2.72-1.457-6.607-5.052-.097-5.149 6.121-.097 10.493 5.635 11.95 7.967 6.995 11.756 18.168 8.452 22.638 6.412.68-5.052 2.72-8.453 4.955-10.396-17.294-1.943-35.365-8.647-35.365-38.376 0-8.453 3.012-15.448 7.966-20.889-.777-1.943-3.497-9.91.778-20.597 0 0 6.509-2.04 21.374 7.967 6.218-1.749 12.825-2.623 19.431-2.623s13.214.874 19.432 2.623c14.865-10.104 21.374-7.967 21.374-7.967 4.275 10.687 1.555 18.654.777 20.597 4.955 5.441 7.967 12.339 7.967 20.889 0 29.827-18.168 36.433-35.462 38.376 2.818 2.429 5.247 7.093 5.247 14.379l-.098 21.375c0 2.04 1.458 4.469 5.344 3.692 15.43-5.21 28.837-15.126 38.336-28.355s14.61-29.102 14.614-45.387C254.45 76.782 219.668 42 176.725 42z" fill="#fff"/></g><path d="M388.476 155.575c-3.256 1.269-7.569 2.539-12.94 3.808-5.371 1.237-10.726 1.856-16.064 1.856-12.37 0-22.054-3.353-29.053-10.059-6.999-6.738-10.498-16.032-10.498-27.881 0-11.295 3.532-20.394 10.596-27.295 7.063-6.934 16.91-10.4 29.541-10.4 4.785 0 9.342.439 13.671 1.318 4.33.846 9.148 2.555 14.454 5.127v17.041h-2.1c-.911-.683-2.246-1.644-4.004-2.881-1.758-1.269-3.45-2.343-5.078-3.222-1.888-1.042-4.102-1.937-6.641-2.686-2.506-.748-5.175-1.123-8.007-1.123-3.321 0-6.332.488-9.034 1.465s-5.127 2.474-7.275 4.492c-2.051 1.953-3.678 4.444-4.883 7.471-1.172 2.995-1.758 6.462-1.758 10.4 0 8.041 2.132 14.193 6.397 18.457s10.563 6.397 18.896 6.397a60.42 60.42 0 0 0 2.344-.049c.879-.033 1.676-.081 2.393-.146v-14.258h-14.502v-13.721h33.545v35.889zm56.152 4.15H402.05v-12.891h11.914V99.911H402.05V87.02h42.578v12.891h-11.914v46.923h11.914v12.891zm72.168-58.642h-22.705v58.642h-18.75v-58.642h-22.705V87.02h64.16v14.063zm76.465 58.642h-18.75v-32.031h-27.686v32.031h-18.75V87.02h18.75v26.611h27.686V87.02h18.75v72.705zm82.275-26.318c0 8.984-2.734 15.869-8.203 20.654s-13.525 7.178-24.17 7.178-18.701-2.393-24.17-7.178c-5.436-4.785-8.154-11.654-8.154-20.605V87.02h18.848v45.361c0 5.046 1.057 8.806 3.173 11.28s5.55 3.711 10.303 3.711c4.688 0 8.106-1.189 10.254-3.565 2.181-2.376 3.271-6.185 3.271-11.426V87.02h18.848v46.387zm79.785 4.052c0 3.516-.716 6.657-2.148 9.424-1.4 2.767-3.337 5.062-5.811 6.885-2.864 2.149-6.022 3.678-9.472 4.59-3.418.911-7.764 1.367-13.037 1.367h-31.739V87.02h28.223c5.859 0 10.14.195 12.842.586 2.734.391 5.436 1.253 8.105 2.588 2.767 1.4 4.818 3.288 6.153 5.664 1.367 2.344 2.05 5.029 2.05 8.057 0 3.515-.927 6.624-2.783 9.326-1.855 2.669-4.476 4.752-7.861 6.25v.39c4.752.944 8.512 2.897 11.279 5.86 2.8 2.962 4.199 6.868 4.199 11.718zm-24.023-29.882c0-1.205-.309-2.409-.928-3.614-.586-1.204-1.644-2.099-3.174-2.685-1.367-.521-3.076-.798-5.127-.83-2.018-.065-4.866-.098-8.545-.098h-1.757v15.381h2.929c2.963 0 5.485-.049 7.569-.147s3.727-.423 4.931-.976c1.693-.749 2.8-1.709 3.321-2.881.52-1.204.781-2.588.781-4.15zm4.59 29.59c0-2.312-.456-4.086-1.367-5.323-.879-1.269-2.393-2.213-4.542-2.832-1.464-.423-3.483-.651-6.054-.683l-8.057-.049h-4.101v18.115h1.367l11.328-.049c2.279-.032 4.378-.456 6.299-1.269 1.953-.814 3.288-1.888 4.004-3.223.748-1.367 1.123-2.93 1.123-4.687z" fill="#fff"/><defs><clipPath id="A"><path fill="#fff" transform="translate(99 42)" d="M0 0h155.45v155.45H0z"/></clipPath></defs></svg>