<svg width="1102" height="240" fill="none" xmlns="http://www.w3.org/2000/svg"><path fill="#405DE6" d="M.35.346H1101.8v239.45H.35z"/><path fill-rule="evenodd" clip-rule="evenodd" d="M147.702 49.25c7.597-.349 10.02-.427 29.373-.427 19.354 0 21.776.084 29.367.428 7.591.343 12.773 1.554 17.307 3.31a35.047 35.047 0 0 1 12.617 8.225 34.782 34.782 0 0 1 8.213 12.611c1.762 4.534 2.967 9.716 3.317 17.294.349 7.61.427 10.033.427 29.38 0 19.354-.084 21.776-.427 29.374-.344 7.578-1.555 12.76-3.317 17.294a34.95 34.95 0 0 1-8.213 12.624 34.919 34.919 0 0 1-12.617 8.212c-4.534 1.762-9.716 2.967-17.294 3.317-7.604.35-10.026.427-29.38.427-19.353 0-21.776-.084-29.373-.427-7.579-.344-12.76-1.555-17.294-3.317a34.943 34.943 0 0 1-12.624-8.212 34.932 34.932 0 0 1-8.22-12.618c-1.755-4.534-2.96-9.715-3.309-17.294-.35-7.61-.428-10.033-.428-29.38 0-19.353.084-21.776.428-29.367.343-7.591 1.554-12.773 3.309-17.307a34.964 34.964 0 0 1 8.226-12.617 34.933 34.933 0 0 1 12.611-8.22c4.534-1.755 9.716-2.96 17.294-3.31h.007Zm58.164 12.825c-7.514-.343-9.768-.414-28.791-.414s-21.277.071-28.791.414c-6.949.318-10.719 1.477-13.232 2.455-3.323 1.296-5.7 2.83-8.194 5.324a22.096 22.096 0 0 0-5.324 8.194c-.978 2.513-2.137 6.283-2.455 13.233-.343 7.513-.414 9.767-.414 28.79s.071 21.277.414 28.791c.318 6.95 1.477 10.72 2.455 13.233a22.118 22.118 0 0 0 5.324 8.193 22.122 22.122 0 0 0 8.194 5.324c2.513.978 6.283 2.138 13.232 2.455 7.514.343 9.761.415 28.791.415s21.277-.072 28.791-.415c6.95-.317 10.719-1.477 13.233-2.455 3.322-1.295 5.699-2.83 8.193-5.324a22.118 22.118 0 0 0 5.324-8.193c.978-2.513 2.138-6.283 2.455-13.233.343-7.514.415-9.768.415-28.791s-.072-21.277-.415-28.79c-.317-6.95-1.477-10.72-2.455-13.233-1.295-3.323-2.83-5.7-5.324-8.194a22.106 22.106 0 0 0-8.193-5.324c-2.514-.978-6.283-2.137-13.233-2.455Zm-37.891 79.96a23.764 23.764 0 0 0 25.908-38.772 23.767 23.767 0 0 0-29.025-3.574 23.763 23.763 0 0 0-10.527 27.284 23.775 23.775 0 0 0 13.644 15.062Zm-16.795-47.86a36.617 36.617 0 0 1 39.91-7.938 36.628 36.628 0 0 1 19.819 19.82 36.609 36.609 0 0 1 0 28.029 36.622 36.622 0 1 1-59.729-39.91Zm70.639-5.272A8.662 8.662 0 0 0 222 76.481a8.653 8.653 0 0 0-6.25-2.536 8.665 8.665 0 0 0-6.173 2.717 8.659 8.659 0 0 0 6.173 14.601 8.66 8.66 0 0 0 6.069-2.36Z" fill="#fff"/><path d="M363.391 160.071h-42.579v-12.89h11.915v-46.924h-11.915v-12.89h42.579v12.89h-11.914v46.924h11.914v12.89Zm81.396 0h-18.066l-30.86-49.902v49.902h-17.187V87.366h22.412l26.514 41.651v-41.65h17.187v72.704Zm76.758-22.851c0 7.161-3.044 12.988-9.131 17.48-6.055 4.46-14.29 6.69-24.707 6.69-6.022 0-11.279-.521-15.771-1.563-4.46-1.074-8.643-2.425-12.549-4.053v-17.431h2.051c3.873 3.092 8.203 5.469 12.988 7.129 4.817 1.66 9.44 2.49 13.867 2.49 1.139 0 2.637-.098 4.492-.293 1.856-.195 3.369-.521 4.541-.977 1.432-.586 2.604-1.318 3.516-2.197.944-.879 1.416-2.181 1.416-3.906 0-1.595-.684-2.962-2.051-4.102-1.335-1.172-3.304-2.067-5.908-2.685a162.985 162.985 0 0 0-8.692-1.807c-3.027-.586-5.875-1.318-8.545-2.197-6.119-1.986-10.53-4.671-13.232-8.057-2.669-3.418-4.004-7.65-4.004-12.695 0-6.771 3.028-12.289 9.082-16.553 6.087-4.297 13.9-6.445 23.438-6.445 4.785 0 9.505.472 14.16 1.416 4.687.911 8.74 2.067 12.158 3.467v16.748h-2.002c-2.93-2.344-6.527-4.297-10.791-5.86-4.232-1.595-8.561-2.392-12.988-2.392-1.563 0-3.125.114-4.688.342-1.53.195-3.011.585-4.443 1.171a8.426 8.426 0 0 0-3.272 2.247c-.911.976-1.367 2.099-1.367 3.369 0 1.92.733 3.401 2.198 4.443 1.464 1.009 4.231 1.937 8.3 2.783 2.67.554 5.225 1.091 7.666 1.612 2.474.52 5.127 1.237 7.959 2.148 5.567 1.823 9.668 4.313 12.305 7.471 2.669 3.125 4.004 7.194 4.004 12.207Zm69.775-35.791h-22.705v58.642h-18.75v-58.642H527.16V87.366h64.16v14.063Zm78.467 58.642h-19.385l-5.029-14.697H618.42l-5.029 14.697h-18.897l26.856-72.705h21.582l26.855 72.705Zm-28.955-28.027-8.936-26.074-8.935 26.074h17.871Zm103.711 23.877c-3.255 1.269-7.568 2.539-12.939 3.808-5.372 1.237-10.726 1.856-16.065 1.856-12.37 0-22.054-3.353-29.053-10.059-6.998-6.738-10.498-16.032-10.498-27.88 0-11.296 3.532-20.394 10.596-27.295 7.064-6.934 16.911-10.4 29.541-10.4 4.785 0 9.342.439 13.672 1.318 4.329.846 9.147 2.555 14.453 5.126v17.042h-2.1a172.862 172.862 0 0 0-4.004-2.881c-1.757-1.27-3.45-2.344-5.078-3.223-1.888-1.042-4.101-1.937-6.64-2.686-2.507-.748-5.176-1.123-8.008-1.123-3.32 0-6.331.489-9.033 1.465-2.702.977-5.127 2.474-7.276 4.492-2.05 1.954-3.678 4.444-4.882 7.471-1.172 2.995-1.758 6.462-1.758 10.401 0 8.04 2.132 14.192 6.396 18.457 4.265 4.264 10.563 6.396 18.897 6.396.716 0 1.497-.016 2.343-.049a44.592 44.592 0 0 0 2.393-.146v-14.258h-14.502v-13.721h33.545v35.889Zm57.617-46.289c0-1.823-.374-3.386-1.123-4.688-.749-1.302-2.034-2.327-3.857-3.076-1.27-.521-2.751-.83-4.444-.928-1.692-.13-3.662-.195-5.908-.195h-6.787v19.58h5.762c2.995 0 5.501-.146 7.519-.439 2.018-.293 3.711-.961 5.078-2.002 1.302-1.009 2.246-2.116 2.832-3.321.619-1.237.928-2.88.928-4.931Zm29.248 50.439h-22.9l-19.824-26.66h-8.643v26.66h-18.652V87.366h31.445c4.297 0 7.992.244 11.084.733a23.92 23.92 0 0 1 8.691 3.173c2.735 1.628 4.899 3.744 6.495 6.348 1.627 2.572 2.441 5.811 2.441 9.717 0 5.371-1.253 9.749-3.76 13.135-2.474 3.385-6.022 6.201-10.644 8.447l24.267 31.152Zm75.391 0h-19.385l-5.029-14.697h-26.953l-5.03 14.697h-18.896l26.855-72.705h21.582l26.856 72.705Zm-28.955-28.027-8.936-26.074-8.935 26.074h17.871Zm115.625 28.027h-18.653V111.39l-13.476 31.591H948.4l-13.476-31.591v48.681h-17.676V87.366h21.777l16.358 36.475 16.308-36.475h21.778v72.705Z" fill="#fff"/></svg>