<svg width="985" height="241" fill="none" xmlns="http://www.w3.org/2000/svg"><path fill="#0077B5" d="M0 .724h984.45v239.45H0z"/><path fill-rule="evenodd" clip-rule="evenodd" d="M105.477 61.106a11.907 11.907 0 0 1 11.904-11.904h118.674a11.904 11.904 0 0 1 8.428 3.48 11.902 11.902 0 0 1 3.49 8.424V179.78a11.915 11.915 0 0 1-3.485 8.428 11.906 11.906 0 0 1-8.427 3.489h-118.68a11.92 11.92 0 0 1-4.557-.906 11.917 11.917 0 0 1-6.443-6.447 11.9 11.9 0 0 1-.904-4.558V61.106Zm56.402 42.425h19.295v9.69c2.785-5.57 9.91-10.584 20.617-10.584 20.526 0 25.39 11.096 25.39 31.453v37.71h-20.772v-33.072c0-11.594-2.785-18.136-9.858-18.136-9.813 0-13.893 7.054-13.893 18.136V171.8h-20.779v-68.269Zm-35.624 67.381h20.779v-68.275h-20.779v68.275Zm23.752-90.543a13.362 13.362 0 1 1-26.718.585 13.362 13.362 0 0 1 26.718-.585Z" fill="#fff"/><path d="M376.269 160.449h-52.442V87.744h18.75v58.643h33.692v14.062Zm50.634 0h-42.578v-12.89h11.914v-46.924h-11.914v-12.89h42.578v12.89h-11.914v46.924h11.914v12.89Zm81.397 0h-18.067l-30.859-49.902v49.902h-17.187V87.744h22.412l26.513 41.651v-41.65H508.3v72.704Zm86.426 0h-22.998l-21.729-29.101-4.395 5.322v23.779h-18.75V87.744h18.75v32.911l25.977-32.91h21.729l-28.418 33.642 29.834 39.062Zm61.865 0h-52.588V87.744h52.588v14.063h-33.936v12.549h31.494v14.062h-31.494v17.969h33.936v14.062Zm84.472-36.279c0 6.771-1.546 12.842-4.638 18.213-3.093 5.339-6.999 9.44-11.719 12.305-3.548 2.148-7.438 3.646-11.67 4.492-4.232.846-9.245 1.269-15.039 1.269h-25.635V87.744h26.367c5.925 0 11.036.505 15.333 1.514 4.296.977 7.91 2.376 10.839 4.2 5.013 3.06 8.952 7.193 11.817 12.402 2.897 5.175 4.345 11.279 4.345 18.31Zm-19.384-.146c0-4.785-.879-8.871-2.637-12.256-1.725-3.418-4.476-6.087-8.252-8.008a20.864 20.864 0 0 0-5.908-1.904c-1.986-.358-4.997-.537-9.033-.537h-4.737v45.507h4.737c4.459 0 7.731-.195 9.814-.586 2.083-.423 4.118-1.171 6.104-2.246 3.418-1.953 5.924-4.557 7.519-7.812 1.595-3.288 2.393-7.341 2.393-12.158Zm72.998 36.425h-42.578v-12.89h11.914v-46.924h-11.914v-12.89h42.578v12.89h-11.914v46.924h11.914v12.89Zm81.396 0h-18.066l-30.86-49.902v49.902H809.96V87.744h22.412l26.514 41.651v-41.65h17.187v72.704Z" fill="#fff"/></svg>