<svg width="933" height="240" fill="none" xmlns="http://www.w3.org/2000/svg"><path fill="#1DA1F2" d="M0 .362h932.45v239.45H0z"/><path d="M252.135 74.34a60.415 60.415 0 0 1-17.326 4.747 30.249 30.249 0 0 0 13.265-16.698 60.237 60.237 0 0 1-19.159 7.32 30.186 30.186 0 0 0-36.277-5.977A30.18 30.18 0 0 0 177.5 97.236a85.684 85.684 0 0 1-62.193-31.53 30.158 30.158 0 0 0-4.081 15.169 30.184 30.184 0 0 0 13.421 25.118 30.093 30.093 0 0 1-13.667-3.776v.389a30.185 30.185 0 0 0 24.205 29.587 30.389 30.389 0 0 1-13.628.518 30.189 30.189 0 0 0 28.188 20.947 60.55 60.55 0 0 1-37.476 12.922 61.71 61.71 0 0 1-7.203-.421 85.333 85.333 0 0 0 46.247 13.556c55.509 0 85.854-45.974 85.854-85.847a87.46 87.46 0 0 0-.091-3.9 61.317 61.317 0 0 0 15.046-15.61l.013-.019ZM380.835 101.445H358.13v58.642h-18.75v-58.642h-22.705V87.382h64.16v14.063Zm111.621-14.063-19.58 72.705h-20.752l-13.037-47.363-12.695 47.363H405.64l-19.58-72.705h19.58l11.181 50.049L430.2 87.382h18.701l12.745 50.049 11.718-50.049h19.092Zm51.856 72.705h-42.579v-12.89h11.914v-46.924h-11.914v-12.89h42.579v12.89h-11.915v46.924h11.915v12.89Zm72.167-58.642h-22.705v58.642h-18.75v-58.642h-22.705V87.382h64.16v14.063Zm68.165 0h-22.706v58.642h-18.75v-58.642h-22.705V87.382h64.161v14.063Zm63.867 58.642h-52.588V87.382h52.588v14.063h-33.936v12.549h31.494v14.062h-31.494v17.969h33.936v14.062Zm56.543-50.439c0-1.823-.375-3.386-1.123-4.688-.749-1.302-2.035-2.327-3.858-3.076-1.269-.521-2.75-.83-4.443-.928-1.693-.13-3.662-.195-5.908-.195h-6.787v19.58h5.761c2.995 0 5.502-.146 7.52-.439 2.018-.293 3.711-.961 5.078-2.002 1.302-1.009 2.246-2.116 2.832-3.321.618-1.237.928-2.88.928-4.931Zm29.248 50.439h-22.901l-19.824-26.66h-8.642v26.66h-18.653V87.382h31.446c4.296 0 7.991.244 11.084.733a23.925 23.925 0 0 1 8.691 3.174c2.734 1.627 4.899 3.743 6.494 6.347 1.628 2.572 2.441 5.811 2.441 9.717 0 5.371-1.253 9.749-3.759 13.135-2.474 3.385-6.022 6.201-10.645 8.447l24.268 31.152Z" fill="#fff"/></svg>