<svg xmlns="http://www.w3.org/2000/svg" width="111" height="28" fill="none" xmlns:v="https://vecta.io/nano"><g clip-path="url(#A)"><path d="M.729 0h109.082v27.898H.729V0z" fill="#292929"/><path d="M28.864 13.949a7.55 7.55 0 0 1-7.546 7.546m7.546-7.546a7.55 7.55 0 0 0-7.546-7.546m7.546 7.546H13.772m7.546 7.546a7.55 7.55 0 0 1-7.546-7.546m7.546 7.546c-1.667 0-4.019-3.379-4.019-7.546s2.351-7.546 4.019-7.546m0 15.093V6.403m0 15.093c1.667 0 4.019-3.379 4.019-7.546s-2.351-7.546-4.019-7.546m0 0a7.55 7.55 0 0 0-7.546 7.546" stroke="#ffc815" stroke-width="1.509" stroke-linecap="round" stroke-linejoin="round"/><path d="M50.321 10.145l-2.281 8.471h-2.418l-1.519-5.518-1.479 5.518h-2.418l-2.281-8.471h2.281l1.303 5.831 1.559-5.831h2.179l1.485 5.831 1.365-5.831h2.224 0zm7.588 8.471h-6.127v-8.471h6.127v1.638h-3.953v1.462h3.669v1.638h-3.669v2.094h3.953v1.638h0zm9.085-2.594a2.35 2.35 0 0 1-.25 1.098c-.159.317-.391.592-.677.802-.334.25-.702.428-1.103.535s-.905.159-1.519.159h-3.697v-8.471h3.288l1.496.068c.319.046.634.146.945.302.322.163.561.383.717.66a1.83 1.83 0 0 1 .239.939c0 .41-.108.772-.324 1.087s-.521.554-.916.728v.046c.554.11.992.338 1.314.683s.489.8.489 1.365h0zm-2.799-3.481c0-.141-.036-.28-.108-.421s-.192-.245-.37-.313c-.159-.061-.358-.093-.597-.097l-.995-.011h-.205v1.792h.341l.882-.017c.243-.011.434-.049.574-.114.197-.088.326-.199.387-.335s.091-.302.091-.483h0zm.535 3.447c0-.269-.053-.476-.16-.62s-.278-.258-.529-.33c-.17-.049-.406-.076-.705-.08l-.938-.006h-.478v2.111h.159l1.32-.006c.252-.001.501-.051.734-.148.227-.095.383-.22.466-.375s.131-.341.131-.546h0zm10.672-.034c0 .835-.355 1.513-1.064 2.037s-1.665.779-2.879.779c-.701 0-1.314-.06-1.838-.182s-1.007-.283-1.462-.472v-2.031h.239a5.07 5.07 0 0 0 1.513.831 4.95 4.95 0 0 0 1.616.29c.133 0 .307-.011.523-.034s.392-.06.529-.114c.167-.068.304-.154.41-.256s.165-.254.165-.455c0-.186-.08-.345-.239-.478s-.385-.241-.688-.313l-1.012-.21a8.13 8.13 0 0 1-.996-.256c-.713-.231-1.227-.544-1.541-.939s-.467-.891-.467-1.479c0-.789.353-1.432 1.058-1.928s1.62-.751 2.731-.751c.554 0 1.107.055 1.65.165s1.018.241 1.417.404v1.951h-.233c-.341-.273-.76-.501-1.257-.683-.483-.184-.996-.278-1.514-.278a3.78 3.78 0 0 0-.546.04 2.05 2.05 0 0 0-.518.137c-.146.056-.277.146-.381.262a.56.56 0 0 0-.159.393c0 .224.085.396.256.518s.493.226.967.324l.894.188c.313.068.622.151.927.251.649.212 1.126.502 1.434.87s.466.838.466 1.422h0zm6.081 2.662h-4.96v-1.502h1.388v-5.468h-1.388v-1.502h4.96v1.502h-1.388v5.467h1.388v1.502.001zm8.408-6.832h-2.646v6.833h-2.184v-6.833h-2.645v-1.638h7.476v1.638h0zm7.441 6.833h-6.126v-8.471h6.126v1.638H93.38v1.462h3.669v1.638H93.38v2.094h3.953v1.638.001z" fill="#ffc815"/></g><defs><clipPath id="A"><path fill="#fff" transform="translate(.729)" d="M0 0h109.544v28H0z"/></clipPath></defs></svg>