<svg xmlns="http://www.w3.org/2000/svg" width="223" height="57" fill="none" xmlns:v="https://vecta.io/nano"><path fill="#292929" d="M0 0h222.06v56.792H0z"/><path d="M57.277 28.396c0 8.484-6.878 15.362-15.362 15.362m15.362-15.362c0-8.484-6.878-15.362-15.362-15.362m15.362 15.362H26.553m15.362 15.362c-8.484 0-15.362-6.878-15.362-15.362m15.362 15.362c-3.394 0-6.145-6.878-6.145-15.362s2.751-15.362 6.145-15.362m0 30.724c3.394 0 6.145-6.878 6.145-15.362s-2.751-15.362-6.145-15.362M26.553 28.396c0-8.484 6.878-15.362 15.362-15.362" stroke="#ffc815" stroke-width="3.072" stroke-linecap="round" stroke-linejoin="round"/><path d="M100.957 20.652l-4.644 17.244h-4.922l-3.092-11.233-3.011 11.233h-4.922l-4.644-17.244h4.644l2.652 11.87 3.173-11.87h4.435l3.023 11.87 2.779-11.87h4.528zm15.448 17.244h-12.472V20.652h12.472v3.335h-8.048v2.976h7.469v3.335h-7.469v4.262h8.048v3.335zm18.495-5.281c0 .834-.17 1.579-.51 2.235a4.55 4.55 0 0 1-1.378 1.633c-.679.51-1.428.872-2.246 1.089-.811.216-1.842.324-3.093.324h-7.527V20.652h6.694l3.045.139c.649.093 1.29.297 1.923.614.656.332 1.142.78 1.459 1.343.324.556.486 1.193.486 1.911 0 .834-.22 1.571-.66 2.212-.44.633-1.061 1.127-1.864 1.482v.093c1.127.224 2.019.687 2.675 1.39.664.703.996 1.629.996 2.779zm-5.698-7.087c0-.286-.073-.571-.22-.857-.139-.286-.39-.498-.753-.637-.324-.124-.729-.189-1.216-.197l-2.026-.023h-.417v3.648h.695l1.795-.035c.494-.023.884-.1 1.169-.232.402-.178.664-.405.788-.683.123-.286.185-.614.185-.984zm1.089 7.018c0-.548-.108-.969-.325-1.262-.208-.301-.567-.525-1.077-.672-.347-.1-.826-.154-1.436-.162l-1.91-.012h-.973v4.297h.324l2.687-.012a3.94 3.94 0 0 0 1.494-.301c.463-.193.78-.448.949-.764.178-.324.267-.695.267-1.112zm21.725-.069c0 1.699-.722 3.08-2.165 4.146-1.436 1.058-3.39 1.587-5.86 1.587-1.428 0-2.675-.123-3.741-.371-1.057-.255-2.05-.575-2.976-.961v-4.134h.486a10.32 10.32 0 0 0 3.081 1.691c1.142.394 2.239.591 3.289.591.27 0 .625-.023 1.065-.069s.799-.123 1.077-.232c.34-.139.618-.313.834-.521.224-.209.336-.517.336-.927 0-.378-.162-.703-.487-.973-.316-.278-.783-.49-1.401-.637l-2.061-.428a16.53 16.53 0 0 1-2.027-.521c-1.451-.471-2.497-1.108-3.138-1.911-.633-.811-.95-1.814-.95-3.011 0-1.606.718-2.915 2.154-3.926 1.444-1.019 3.297-1.529 5.559-1.529a16.85 16.85 0 0 1 3.358.336c1.112.216 2.073.49 2.884.822v3.972h-.475c-.695-.556-1.548-1.019-2.559-1.39a8.67 8.67 0 0 0-3.081-.567c-.37 0-.741.027-1.111.081a4.16 4.16 0 0 0-1.054.278 2 2 0 0 0-.776.533c-.216.232-.324.498-.324.799 0 .456.173.807.521 1.054.347.239 1.003.459 1.968.66l1.819.382a18.92 18.92 0 0 1 1.887.51c1.321.432 2.293 1.023 2.919 1.772.633.741.949 1.706.949 2.895zm12.38 5.42h-10.098v-3.057h2.825V23.709h-2.825v-3.057h10.098v3.057h-2.826v11.129h2.826v3.057zm17.117-13.909h-5.386v13.909h-4.447V23.987h-5.385v-3.335h15.218v3.335zm15.147 13.909h-12.472V20.652h12.472v3.335h-8.048v2.976h7.469v3.335h-7.469v4.262h8.048v3.335z" fill="#ffc815"/></svg>